<svg width="320" height="240" viewBox="0 0 320 240" fill="none" xmlns="http://www.w3.org/2000/svg">
  <rect width="320" height="240" rx="24" fill="#09111F"/>
  <rect x="20" y="20" width="280" height="168" rx="18" fill="#111C31"/>
  <rect x="36" y="40" width="58" height="8" rx="4" fill="#8CE2D1"/>
  <rect x="36" y="58" width="128" height="14" rx="7" fill="#F3F6FF"/>
  <rect x="36" y="80" width="118" height="14" rx="7" fill="#F3F6FF"/>
  <rect x="36" y="104" width="108" height="10" rx="5" fill="#9FB0D8"/>
  <rect x="36" y="122" width="96" height="10" rx="5" fill="#9FB0D8"/>
  <rect x="36" y="148" width="78" height="26" rx="13" fill="#5A8BFF"/>
  <rect x="122" y="148" width="78" height="26" rx="13" fill="#1A2743"/>
  <rect x="212" y="44" width="64" height="102" rx="18" fill="#1A2743"/>
  <rect x="224" y="58" width="40" height="54" rx="12" fill="#5A8BFF"/>
  <rect x="212" y="154" width="64" height="20" rx="10" fill="#17233E"/>
  <circle cx="50" cy="174" r="6" fill="#FFB95E"/>
  <circle cx="70" cy="174" r="6" fill="#8CE2D1"/>
  <circle cx="90" cy="174" r="6" fill="#FF7E6B"/>
  <text x="24" y="212" fill="#F3F6FF" font-family="Arial, sans-serif" font-size="16" font-weight="700">Hero</text>
  <text x="24" y="228" fill="#8FA0C8" font-family="Arial, sans-serif" font-size="11">Eyebrow, heading, buttons, badges</text>
</svg>
