<svg width="320" height="240" viewBox="0 0 320 240" fill="none" xmlns="http://www.w3.org/2000/svg">
  <rect width="320" height="240" rx="24" fill="#09111F"/>
  <rect x="20" y="26" width="280" height="156" rx="18" fill="#111C31"/>
  <rect x="96" y="44" width="128" height="12" rx="6" fill="#F3F6FF"/>
  <rect x="48" y="90" width="36" height="28" rx="10" fill="#1B2845"/>
  <rect x="92" y="90" width="36" height="28" rx="10" fill="#1B2845"/>
  <rect x="136" y="90" width="36" height="28" rx="10" fill="#5A8BFF"/>
  <rect x="180" y="90" width="36" height="28" rx="10" fill="#1B2845"/>
  <rect x="224" y="90" width="36" height="28" rx="10" fill="#1B2845"/>
  <rect x="70" y="130" width="36" height="28" rx="10" fill="#1B2845"/>
  <rect x="114" y="130" width="36" height="28" rx="10" fill="#1B2845"/>
  <rect x="158" y="130" width="36" height="28" rx="10" fill="#1B2845"/>
  <rect x="202" y="130" width="36" height="28" rx="10" fill="#8CE2D1"/>
  <text x="24" y="212" fill="#F3F6FF" font-family="Arial, sans-serif" font-size="16" font-weight="700">Logos</text>
  <text x="24" y="228" fill="#8FA0C8" font-family="Arial, sans-serif" font-size="11">Heading plus logo wall</text>
</svg>
