<svg width="320" height="240" viewBox="0 0 320 240" fill="none" xmlns="http://www.w3.org/2000/svg">
  <rect width="320" height="240" rx="24" fill="#09111F"/>
  <rect x="20" y="20" width="280" height="168" rx="18" fill="#111C31"/>
  <rect x="36" y="38" width="92" height="12" rx="6" fill="#F3F6FF"/>
  <rect x="36" y="58" width="156" height="10" rx="5" fill="#9FB0D8"/>
  <rect x="36" y="86" width="74" height="82" rx="14" fill="#1A2743"/>
  <rect x="44" y="96" width="40" height="8" rx="4" fill="#F3F6FF"/>
  <rect x="44" y="114" width="26" height="20" rx="6" fill="#5A8BFF"/>
  <rect x="123" y="86" width="74" height="82" rx="14" fill="#1A2743"/>
  <rect x="131" y="96" width="40" height="8" rx="4" fill="#F3F6FF"/>
  <rect x="131" y="114" width="26" height="20" rx="6" fill="#8CE2D1"/>
  <rect x="210" y="86" width="74" height="82" rx="14" fill="#1A2743"/>
  <rect x="218" y="96" width="40" height="8" rx="4" fill="#F3F6FF"/>
  <rect x="218" y="114" width="26" height="20" rx="6" fill="#FFB95E"/>
  <text x="24" y="212" fill="#F3F6FF" font-family="Arial, sans-serif" font-size="16" font-weight="700">Offer cards</text>
  <text x="24" y="228" fill="#8FA0C8" font-family="Arial, sans-serif" font-size="11">Service cards with pricing note</text>
</svg>
