<svg width="320" height="240" viewBox="0 0 320 240" fill="none" xmlns="http://www.w3.org/2000/svg">
  <rect width="320" height="240" rx="24" fill="#09111F"/>
  <rect x="20" y="20" width="280" height="168" rx="18" fill="#111C31"/>
  <rect x="36" y="38" width="110" height="12" rx="6" fill="#F3F6FF"/>
  <rect x="36" y="64" width="54" height="18" rx="9" fill="#5A8BFF"/>
  <rect x="98" y="64" width="54" height="18" rx="9" fill="#1A2743"/>
  <rect x="160" y="64" width="54" height="18" rx="9" fill="#1A2743"/>
  <rect x="36" y="96" width="248" height="72" rx="16" fill="#18233D"/>
  <rect x="50" y="110" width="90" height="10" rx="5" fill="#F3F6FF"/>
  <rect x="50" y="128" width="116" height="8" rx="4" fill="#9DAED6"/>
  <circle cx="56" cy="150" r="4" fill="#8CE2D1"/>
  <circle cx="56" cy="164" r="4" fill="#8CE2D1"/>
  <rect x="194" y="112" width="74" height="40" rx="12" fill="#5A8BFF"/>
  <text x="24" y="212" fill="#F3F6FF" font-family="Arial, sans-serif" font-size="16" font-weight="700">Use cases</text>
  <text x="24" y="228" fill="#8FA0C8" font-family="Arial, sans-serif" font-size="11">Tabs plus content panel</text>
</svg>
